<svg width="25" height="24" viewBox="0 0 25 24" fill="none" xmlns="http://www.w3.org/2000/svg">
<g id="solar:document-linear">
<g id="Group">
<path id="Vector" d="M3.7 10C3.7 6.229 3.7 4.343 4.872 3.172C6.044 2.001 7.929 2 11.7 2H13.7C17.471 2 19.357 2 20.528 3.172C21.699 4.344 21.7 6.229 21.7 10V14C21.7 17.771 21.7 19.657 20.528 20.828C19.356 21.999 17.471 22 13.7 22H11.7C7.929 22 6.043 22 4.872 20.828C3.701 19.656 3.7 17.771 3.7 14V10Z" stroke="#484554" stroke-width="1.5"/>
<path id="Vector_2" d="M8.7 10H16.7M8.7 14H13.7" stroke="#484554" stroke-width="1.5" stroke-linecap="round"/>
</g>
</g>
</svg>
