<svg width="25" height="24" viewBox="0 0 25 24" fill="none" xmlns="http://www.w3.org/2000/svg">
<g id="solar:calendar-linear">
<g id="Group">
<path id="Vector" d="M2.30002 12C2.30002 8.229 2.30002 6.343 3.47202 5.172C4.64402 4.001 6.52902 4 10.3 4H14.3C18.071 4 19.957 4 21.128 5.172C22.299 6.344 22.3 8.229 22.3 12V14C22.3 17.771 22.3 19.657 21.128 20.828C19.956 21.999 18.071 22 14.3 22H10.3C6.52902 22 4.64302 22 3.47202 20.828C2.30102 19.656 2.30002 17.771 2.30002 14V12Z" stroke="#484554" stroke-width="1.5"/>
<path id="Vector_2" d="M7.30002 4V2.5M17.3 4V2.5M2.80002 9H21.8" stroke="#484554" stroke-width="1.5" stroke-linecap="round"/>
<path id="Vector_3" d="M17.8 17C17.8 17.1326 17.7473 17.2598 17.6536 17.3536C17.5598 17.4473 17.4326 17.5 17.3 17.5C17.1674 17.5 17.0402 17.4473 16.9465 17.3536C16.8527 17.2598 16.8 17.1326 16.8 17C16.8 16.8674 16.8527 16.7402 16.9465 16.6464C17.0402 16.5527 17.1674 16.5 17.3 16.5C17.4326 16.5 17.5598 16.5527 17.6536 16.6464C17.7473 16.7402 17.8 16.8674 17.8 17ZM17.8 13C17.8 13.1326 17.7473 13.2598 17.6536 13.3536C17.5598 13.4473 17.4326 13.5 17.3 13.5C17.1674 13.5 17.0402 13.4473 16.9465 13.3536C16.8527 13.2598 16.8 13.1326 16.8 13C16.8 12.8674 16.8527 12.7402 16.9465 12.6464C17.0402 12.5527 17.1674 12.5 17.3 12.5C17.4326 12.5 17.5598 12.5527 17.6536 12.6464C17.7473 12.7402 17.8 12.8674 17.8 13ZM12.8 17C12.8 17.1326 12.7473 17.2598 12.6536 17.3536C12.5598 17.4473 12.4326 17.5 12.3 17.5C12.1674 17.5 12.0402 17.4473 11.9465 17.3536C11.8527 17.2598 11.8 17.1326 11.8 17C11.8 16.8674 11.8527 16.7402 11.9465 16.6464C12.0402 16.5527 12.1674 16.5 12.3 16.5C12.4326 16.5 12.5598 16.5527 12.6536 16.6464C12.7473 16.7402 12.8 16.8674 12.8 17ZM12.8 13C12.8 13.1326 12.7473 13.2598 12.6536 13.3536C12.5598 13.4473 12.4326 13.5 12.3 13.5C12.1674 13.5 12.0402 13.4473 11.9465 13.3536C11.8527 13.2598 11.8 13.1326 11.8 13C11.8 12.8674 11.8527 12.7402 11.9465 12.6464C12.0402 12.5527 12.1674 12.5 12.3 12.5C12.4326 12.5 12.5598 12.5527 12.6536 12.6464C12.7473 12.7402 12.8 12.8674 12.8 13ZM7.80002 17C7.80002 17.1326 7.74734 17.2598 7.65357 17.3536C7.5598 17.4473 7.43263 17.5 7.30002 17.5C7.16741 17.5 7.04023 17.4473 6.94647 17.3536C6.8527 17.2598 6.80002 17.1326 6.80002 17C6.80002 16.8674 6.8527 16.7402 6.94646 16.6464C7.04023 16.5527 7.16741 16.5 7.30002 16.5C7.43263 16.5 7.5598 16.5527 7.65357 16.6464C7.74734 16.7402 7.80002 16.8674 7.80002 17ZM7.80002 13C7.80002 13.1326 7.74734 13.2598 7.65357 13.3536C7.5598 13.4473 7.43263 13.5 7.30002 13.5C7.16741 13.5 7.04023 13.4473 6.94647 13.3536C6.8527 13.2598 6.80002 13.1326 6.80002 13C6.80002 12.8674 6.8527 12.7402 6.94647 12.6464C7.04023 12.5527 7.16741 12.5 7.30002 12.5C7.43263 12.5 7.5598 12.5527 7.65357 12.6464C7.74734 12.7402 7.80002 12.8674 7.80002 13Z" fill="#484554" stroke="#484554"/>
</g>
</g>
</svg>
